<?xml version="1.0" encoding="UTF-8"?>
<svg enable-background="new 0 0 476.737 476.737" version="1.1" viewBox="0 0 476.737 476.737" xml:space="preserve" xmlns="http://www.w3.org/2000/svg">
			<path d="m238.37 0c-131.64 0-238.37 106.73-238.37 238.37 0 131.68 106.73 238.37 238.37 238.37 131.68 0 238.37-106.69 238.37-238.37-1e-3 -131.64-106.7-238.37-238.37-238.37zm50.852 330.25c6.198 6.198 6.198 16.273 0 22.47s-16.273 6.198-22.47 0l-103.07-103.07c-3.115-3.115-4.64-7.183-4.64-11.283s1.526-8.168 4.64-11.283l103.07-103.07c6.198-6.198 16.273-6.198 22.47 0 6.198 6.198 6.198 16.273 0 22.47l-91.883 91.883 91.884 91.884z" fill="#010002"/>
</svg>
